<svg width="257" height="68" viewBox="0 0 257 68" fill="none" xmlns="http://www.w3.org/2000/svg">
<path d="M20.5373 59.5922C16.1211 59.5922 12.2247 57.3467 9.92844 53.9364C8.55738 51.9002 7.75684 49.4486 7.75684 46.8118C7.75684 39.9552 19.3263 27.8457 19.8172 27.3384L20.4227 26.7002L21.0445 27.322C21.5518 27.8293 33.3177 39.9388 33.3177 46.7954C33.3177 49.4401 32.5161 51.897 31.1434 53.9364C28.8468 57.3485 24.9516 59.5922 20.5373 59.5922ZM20.4391 29.1712C19.4245 30.2676 17.2972 32.6404 15.1862 35.4223C11.4388 40.3643 9.45871 44.2917 9.45871 46.7954C9.45871 52.8992 14.4334 57.874 20.5373 57.874C26.6411 57.874 31.6158 52.8992 31.6158 46.7954C31.6158 44.2917 29.603 40.3643 25.7902 35.4223C23.6465 32.6568 21.47 30.2676 20.4391 29.1712Z" fill="url(#paint0_linear)"/>
<path d="M20.537 63.6844C11.2258 63.6844 3.66553 56.1078 3.66553 46.8129C3.66553 37.7144 16.3641 25.0158 16.9041 24.4922C17.2314 24.1649 17.7878 24.1649 18.1151 24.4922C18.4424 24.8195 18.4424 25.3759 18.1151 25.7031C17.9842 25.8341 5.38377 38.4345 5.38377 46.8129C5.38377 55.175 12.1913 61.9825 20.5534 61.9825C28.9155 61.9825 35.723 55.175 35.723 46.8129C35.723 43.3765 33.4974 38.6308 29.2755 33.0507C26.0354 28.7796 22.7789 25.5395 22.7462 25.5068C22.4025 25.1795 22.4025 24.6395 22.7462 24.2958C23.0734 23.9522 23.6135 23.9522 23.9571 24.2958C24.5135 24.8358 37.4412 37.6981 37.4412 46.8129C37.4085 56.1078 29.8482 63.6844 20.537 63.6844V63.6844Z" fill="url(#paint1_linear)"/>
<path d="M20.537 67.7752C9.21303 67.7752 0 58.5622 0 47.2382C0 42.558 2.35644 36.7978 6.9875 30.1376C10.4076 25.2284 13.7623 21.7264 13.9096 21.5792C14.2368 21.2355 14.7769 21.2355 15.1205 21.5628C15.4641 21.8901 15.4641 22.4301 15.1369 22.7737C15.1041 22.8065 11.7168 26.3411 8.37846 31.1358C4.00922 37.4033 1.70187 42.9671 1.70187 47.2382C1.70187 57.6131 10.1458 66.0734 20.537 66.0734C30.9283 66.0734 39.3722 57.6294 39.3722 47.2382C39.3722 42.9671 37.0485 37.4033 32.6465 31.1358C29.2755 26.3411 25.8554 22.8065 25.8227 22.7737C25.4954 22.4301 25.4954 21.8901 25.839 21.5628C26.1827 21.2355 26.7227 21.2355 27.05 21.5792C27.6227 22.1683 41.0741 36.1433 41.0741 47.2382C41.0741 58.5622 31.8611 67.7752 20.537 67.7752Z" fill="url(#paint2_linear)"/>
<path d="M20.4859 7.3252L37.2352 16.6288L37.2352 35.2359L20.4859 44.5394L3.73663 35.2359L3.73663 16.6288L20.4859 7.3252Z" fill="url(#paint3_linear)"/>
<path d="M20.4859 9.39258L35.3742 17.6596V34.1936L20.4859 42.4605L5.59765 34.1936L5.59765 17.6596L20.4859 9.39258Z" fill="#7380EB"/>
<path d="M20.4131 25.0116L35.3725 17.6572L35.376 34.1884L20.481 42.4716L20.4131 25.0116Z" fill="#6E98E9"/>
<path fill-rule="evenodd" clip-rule="evenodd" d="M20.4769 13.0021L32.0029 19.3312L35.3659 17.6731L20.4882 9.38867L20.4769 9.39499L20.4656 9.38867L5.58789 17.6731L5.59627 17.6772L5.59347 34.19L8.86422 36.0136L8.86477 35.9174V35.998L20.4935 42.4678V42.4575L35.3694 34.1948V32.3428V30.4744L20.4935 38.7489V38.7473L8.88536 32.3008L8.9592 19.3309L8.95514 19.3289L20.4769 13.0021Z" fill="#16253D"/>
<path d="M59.4465 53.4309C60.1186 53.4309 60.7323 53.3286 61.2875 53.1386C61.8427 52.9341 62.3249 52.6711 62.7486 52.335C63.1724 52.0136 63.523 51.6483 63.8007 51.2391C64.0783 50.83 64.2828 50.4209 64.4143 49.9972L62.8801 49.778C62.7486 50.0702 62.5879 50.3478 62.3834 50.6255C62.1788 50.9031 61.9304 51.1369 61.6528 51.3414C61.3752 51.5606 61.0537 51.7213 60.6884 51.8528C60.3231 51.9843 59.8994 52.0428 59.4465 52.0428C58.9497 52.0428 58.4675 51.9405 58.0145 51.7213C57.5616 51.5022 57.1525 51.2099 56.8018 50.83C56.4511 50.4647 56.1735 50.0264 55.9689 49.515C55.7498 49.0036 55.6475 48.463 55.6475 47.8785C55.6475 47.2941 55.7498 46.7534 55.9689 46.242C56.1735 45.7306 56.4511 45.2923 56.8018 44.9124C57.1525 44.5471 57.5616 44.2549 58.0145 44.0357C58.4675 43.8165 58.9497 43.7143 59.4465 43.7143C59.8702 43.7143 60.2501 43.7727 60.5861 43.8896C60.9222 44.0065 61.229 44.1526 61.4921 44.3425C61.7404 44.5325 61.9596 44.7517 62.1496 45.0001C62.3395 45.2485 62.4856 45.5115 62.5879 45.7599L64.1221 45.5407C63.9906 45.1462 63.8007 44.7517 63.5377 44.3572C63.2747 43.9773 62.9532 43.6412 62.5587 43.3344C62.1642 43.0275 61.6966 42.7937 61.1852 42.6038C60.6738 42.4138 60.0894 42.3262 59.4465 42.3262C58.7305 42.3262 58.0584 42.4723 57.4155 42.7645C56.7726 43.0567 56.2027 43.4513 55.7205 43.948C55.2238 44.4594 54.8292 45.0439 54.5516 45.716C54.2594 46.3881 54.1133 47.1041 54.1133 47.8785C54.1133 48.6529 54.2594 49.3689 54.5516 50.041C54.8292 50.7131 55.2238 51.2976 55.7205 51.7944C56.2027 52.3058 56.7726 52.7003 57.4155 52.9925C58.0584 53.2847 58.7305 53.4309 59.4465 53.4309Z" fill="#F5F5FB"/>
<path fill-rule="evenodd" clip-rule="evenodd" d="M68.8657 49.6319H72.1533L74.0527 52.9925H75.66L73.6144 49.3397C74.0235 49.1935 74.3888 48.9744 74.7103 48.6968C74.9879 48.463 75.2363 48.1415 75.4701 47.7324C75.6892 47.3379 75.8061 46.8265 75.8061 46.1982C75.8061 45.7014 75.7185 45.2485 75.5431 44.8247C75.3678 44.401 75.1194 44.0357 74.7979 43.7289C74.4619 43.422 74.0674 43.1882 73.5998 43.0129C73.1322 42.8522 72.6062 42.7645 72.0364 42.7645H67.3315V52.9925H68.8657V49.6319ZM72.0071 48.2438H68.8657V44.1526H72.0364C72.3724 44.1526 72.6793 44.1964 72.9569 44.2987C73.2345 44.401 73.4683 44.5471 73.6582 44.7371C73.8482 44.927 74.0089 45.1316 74.1112 45.38C74.2135 45.6284 74.2719 45.906 74.2719 46.1982C74.2719 46.4758 74.2135 46.7242 74.1112 46.9726C74.0089 47.221 73.8482 47.4402 73.6582 47.6301C73.4683 47.8201 73.2345 47.9662 72.9569 48.0685C72.6793 48.1854 72.3578 48.2438 72.0071 48.2438Z" fill="#F5F5FB"/>
<path d="M83.4834 49.6319V52.9925H81.9492V49.6319C81.2917 48.5068 80.6196 47.3525 79.9474 46.1982C79.2607 45.0439 78.5886 43.9042 77.9311 42.7645H79.6844L82.6798 47.8055H82.7528L85.7482 42.7645H87.5015C87.0867 43.4836 86.6661 44.2026 86.2433 44.9253L86.2424 44.9267L86.2418 44.9279C85.9949 45.3498 85.7473 45.773 85.4998 46.1982C84.9118 47.1865 84.3346 48.1747 83.7681 49.1446L83.4834 49.6319Z" fill="#F5F5FB"/>
<path fill-rule="evenodd" clip-rule="evenodd" d="M98.6102 46.4904C98.6102 45.979 98.5079 45.4969 98.318 45.0439C98.1134 44.5909 97.8358 44.1964 97.4705 43.8604C97.1052 43.5243 96.6815 43.2467 96.1847 43.0567C95.6733 42.8668 95.1181 42.7645 94.519 42.7645H90.0625V52.9925H91.5967V50.2163H94.519C95.1181 50.2163 95.6733 50.1141 96.1847 49.9241C96.6815 49.7342 97.1052 49.4566 97.4705 49.1205C97.8358 48.7844 98.1134 48.3899 98.318 47.937C98.5079 47.484 98.6102 47.0018 98.6102 46.4904ZM97.076 46.4904C97.076 47.1918 96.8569 47.7616 96.4039 48.1854C95.9509 48.6091 95.3227 48.8283 94.519 48.8283H91.5967V44.1526H94.519C95.3227 44.1526 95.9509 44.3718 96.4039 44.7955C96.8569 45.2192 97.076 45.7891 97.076 46.4904Z" fill="#F5F5FB"/>
<path d="M104.028 44.1526H100.594V42.7645H108.996V44.1526H105.562V52.9925H104.028V44.1526Z" fill="#F5F5FB"/>
<path fill-rule="evenodd" clip-rule="evenodd" d="M121.7 47.8785C121.7 47.1041 121.554 46.3881 121.261 45.716C120.969 45.0439 120.575 44.4594 120.078 43.948C119.581 43.4513 118.997 43.0567 118.339 42.7645C117.682 42.4723 116.966 42.3262 116.22 42.3262C115.475 42.3262 114.759 42.4723 114.102 42.7645C113.444 43.0567 112.86 43.4513 112.363 43.948C111.866 44.4594 111.472 45.0439 111.179 45.716C110.887 46.3881 110.741 47.1041 110.741 47.8785C110.741 48.6529 110.887 49.3689 111.179 50.041C111.472 50.7131 111.866 51.2976 112.363 51.7944C112.86 52.3058 113.444 52.7003 114.102 52.9925C114.759 53.2847 115.475 53.4309 116.22 53.4309C116.966 53.4309 117.682 53.2847 118.339 52.9925C118.997 52.7003 119.581 52.3058 120.078 51.7944C120.575 51.2976 120.969 50.7131 121.261 50.041C121.554 49.3689 121.7 48.6529 121.7 47.8785ZM112.275 47.8785C112.275 47.2941 112.378 46.7534 112.597 46.242C112.816 45.7306 113.094 45.2923 113.459 44.9124C113.824 44.5471 114.233 44.2549 114.715 44.0357C115.198 43.8165 115.694 43.7143 116.22 43.7143C116.746 43.7143 117.243 43.8165 117.725 44.0357C118.208 44.2549 118.617 44.5471 118.982 44.9124C119.347 45.2923 119.625 45.7306 119.844 46.242C120.063 46.7534 120.166 47.2941 120.166 47.8785C120.166 48.463 120.063 49.0036 119.844 49.515C119.625 50.0264 119.347 50.4647 118.982 50.83C118.617 51.2099 118.208 51.5022 117.725 51.7213C117.243 51.9405 116.746 52.0428 116.22 52.0428C115.694 52.0428 115.198 51.9405 114.715 51.7213C114.233 51.5022 113.824 51.2099 113.459 50.83C113.094 50.4647 112.816 50.0264 112.597 49.515C112.378 49.0036 112.275 48.463 112.275 47.8785Z" fill="#F5F5FB"/>
<path d="M131.435 53.1386C130.88 53.3286 130.267 53.4309 129.594 53.4309C128.878 53.4309 128.206 53.2847 127.563 52.9925C126.921 52.7003 126.351 52.3058 125.869 51.7944C125.372 51.2976 124.977 50.7131 124.7 50.041C124.407 49.3689 124.261 48.6529 124.261 47.8785C124.261 47.1041 124.407 46.3881 124.7 45.716C124.977 45.0439 125.372 44.4594 125.869 43.948C126.351 43.4513 126.921 43.0567 127.563 42.7645C128.206 42.4723 128.878 42.3262 129.594 42.3262C130.237 42.3262 130.822 42.4138 131.333 42.6038C131.845 42.7937 132.312 43.0275 132.707 43.3344C133.101 43.6412 133.423 43.9773 133.686 44.3572C133.949 44.7517 134.139 45.1462 134.27 45.5407L132.736 45.7599C132.634 45.5115 132.488 45.2485 132.298 45.0001C132.108 44.7517 131.888 44.5325 131.64 44.3425C131.377 44.1526 131.07 44.0065 130.734 43.8896C130.398 43.7727 130.018 43.7143 129.594 43.7143C129.098 43.7143 128.615 43.8165 128.163 44.0357C127.71 44.2549 127.3 44.5471 126.95 44.9124C126.599 45.2923 126.321 45.7306 126.117 46.242C125.898 46.7534 125.795 47.2941 125.795 47.8785C125.795 48.463 125.898 49.0036 126.117 49.515C126.321 50.0264 126.599 50.4647 126.95 50.83C127.3 51.2099 127.71 51.5022 128.163 51.7213C128.615 51.9405 129.098 52.0428 129.594 52.0428C130.047 52.0428 130.471 51.9843 130.836 51.8528C131.202 51.7213 131.523 51.5606 131.801 51.3414C132.078 51.1369 132.327 50.9031 132.531 50.6255C132.736 50.3478 132.897 50.0702 133.028 49.778L134.562 49.9972C134.431 50.4209 134.226 50.83 133.949 51.2391C133.671 51.6483 133.32 52.0136 132.897 52.335C132.473 52.6711 131.991 52.9341 131.435 53.1386Z" fill="#F5F5FB"/>
<path d="M141.644 52.0428C141.264 52.0428 140.913 51.9697 140.592 51.8382C140.27 51.7067 139.993 51.5168 139.759 51.2684C139.525 51.02 139.35 50.7277 139.218 50.3771C139.087 50.0264 139.014 49.6319 139.014 49.1935V42.7645H137.479V49.1935C137.479 49.8364 137.582 50.4209 137.786 50.9323C137.976 51.4583 138.269 51.9113 138.634 52.2766C138.999 52.6418 139.437 52.9341 139.949 53.1386C140.46 53.3286 141.015 53.4309 141.644 53.4309C142.272 53.4309 142.842 53.3286 143.353 53.1386C143.865 52.9341 144.303 52.6418 144.668 52.2766C145.034 51.9113 145.311 51.4583 145.516 50.9323C145.706 50.4209 145.808 49.8364 145.808 49.1935V42.7645H144.274V49.1935C144.274 49.6319 144.215 50.0264 144.084 50.3771C143.952 50.7277 143.762 51.02 143.529 51.2684C143.295 51.5168 143.017 51.7067 142.696 51.8382C142.374 51.9697 142.024 52.0428 141.644 52.0428Z" fill="#F5F5FB"/>
<path fill-rule="evenodd" clip-rule="evenodd" d="M154.209 49.6319H150.921V52.9925H149.387V42.7645H154.092C154.662 42.7645 155.188 42.8522 155.656 43.0129C156.123 43.1882 156.518 43.422 156.854 43.7289C157.175 44.0357 157.424 44.401 157.599 44.8247C157.774 45.2485 157.862 45.7014 157.862 46.1982C157.862 46.8265 157.745 47.3379 157.526 47.7324C157.292 48.1415 157.044 48.463 156.766 48.6968C156.445 48.9744 156.079 49.1935 155.67 49.3397L157.716 52.9925H156.108L154.209 49.6319ZM150.921 48.2438H154.063C154.414 48.2438 154.735 48.1854 155.013 48.0685C155.29 47.9662 155.524 47.8201 155.714 47.6301C155.904 47.4402 156.065 47.221 156.167 46.9726C156.269 46.7242 156.328 46.4758 156.328 46.1982C156.328 45.906 156.269 45.6284 156.167 45.38C156.065 45.1316 155.904 44.927 155.714 44.7371C155.524 44.5471 155.29 44.401 155.013 44.2987C154.735 44.1964 154.428 44.1526 154.092 44.1526H150.921V48.2438Z" fill="#F5F5FB"/>
<path fill-rule="evenodd" clip-rule="evenodd" d="M162.544 49.6319H165.831L167.731 52.9925H169.338L167.293 49.3397C167.702 49.1935 168.067 48.9744 168.388 48.6968C168.666 48.463 168.914 48.1415 169.148 47.7324C169.367 47.3379 169.484 46.8265 169.484 46.1982C169.484 45.7014 169.397 45.2485 169.221 44.8247C169.046 44.401 168.797 44.0357 168.476 43.7289C168.14 43.422 167.745 43.1882 167.278 43.0129C166.81 42.8522 166.284 42.7645 165.714 42.7645H161.01V52.9925H162.544V49.6319ZM165.685 48.2438H162.544V44.1526H165.714C166.051 44.1526 166.357 44.1964 166.635 44.2987C166.913 44.401 167.146 44.5471 167.336 44.7371C167.526 44.927 167.687 45.1316 167.789 45.38C167.892 45.6284 167.95 45.906 167.95 46.1982C167.95 46.4758 167.892 46.7242 167.789 46.9726C167.687 47.221 167.526 47.4402 167.336 47.6301C167.146 47.8201 166.913 47.9662 166.635 48.0685C166.357 48.1854 166.036 48.2438 165.685 48.2438Z" fill="#F5F5FB"/>
<path d="M174.166 51.6044H180.157V52.9925H172.632V42.7645H180.157V44.1526H174.166V47.1479H178.915V48.536H174.166V51.6044Z" fill="#F5F5FB"/>
<path d="M189.732 50.4355L184.765 42.7645H183.084V52.9925H184.618V45.3215H184.765L189.732 52.9925H191.413V42.7645H189.879V50.4355H189.732Z" fill="#F5F5FB"/>
<path d="M201.655 53.1386C201.1 53.3286 200.486 53.4309 199.814 53.4309C199.098 53.4309 198.426 53.2847 197.783 52.9925C197.14 52.7003 196.57 52.3058 196.088 51.7944C195.591 51.2976 195.197 50.7131 194.919 50.041C194.627 49.3689 194.481 48.6529 194.481 47.8785C194.481 47.1041 194.627 46.3881 194.919 45.716C195.197 45.0439 195.591 44.4594 196.088 43.948C196.57 43.4513 197.14 43.0567 197.783 42.7645C198.426 42.4723 199.098 42.3262 199.814 42.3262C200.457 42.3262 201.041 42.4138 201.553 42.6038C202.064 42.7937 202.532 43.0275 202.926 43.3344C203.321 43.6412 203.642 43.9773 203.905 44.3572C204.168 44.7517 204.358 45.1462 204.489 45.5407L202.955 45.7599C202.853 45.5115 202.707 45.2485 202.517 45.0001C202.327 44.7517 202.108 44.5325 201.859 44.3425C201.596 44.1526 201.29 44.0065 200.953 43.8896C200.617 43.7727 200.238 43.7143 199.814 43.7143C199.317 43.7143 198.835 43.8165 198.382 44.0357C197.929 44.2549 197.52 44.5471 197.169 44.9124C196.818 45.2923 196.541 45.7306 196.336 46.242C196.117 46.7534 196.015 47.2941 196.015 47.8785C196.015 48.463 196.117 49.0036 196.336 49.515C196.541 50.0264 196.818 50.4647 197.169 50.83C197.52 51.2099 197.929 51.5022 198.382 51.7213C198.835 51.9405 199.317 52.0428 199.814 52.0428C200.267 52.0428 200.69 51.9843 201.056 51.8528C201.421 51.7213 201.742 51.5606 202.02 51.3414C202.298 51.1369 202.546 50.9031 202.751 50.6255C202.955 50.3478 203.116 50.0702 203.247 49.778L204.782 49.9972C204.65 50.4209 204.446 50.83 204.168 51.2391C203.89 51.6483 203.54 52.0136 203.116 52.335C202.692 52.6711 202.21 52.9341 201.655 53.1386Z" fill="#F5F5FB"/>
<path d="M209.233 42.7645H207.699V52.9925H209.233V42.7645Z" fill="#F5F5FB"/>
<path d="M214.349 51.6044H220.339V52.9925H212.815V42.7645H220.339V44.1526H214.349V47.1479H219.097V48.536H214.349V51.6044Z" fill="#F5F5FB"/>
<path d="M229.404 50.1433C229.404 50.3771 229.345 50.6109 229.228 50.83C229.111 51.0638 228.951 51.2684 228.732 51.4437C228.512 51.6337 228.264 51.7798 227.957 51.882C227.65 51.9843 227.3 52.0428 226.92 52.0428C226.54 52.0428 226.204 51.9843 225.897 51.882C225.59 51.7798 225.312 51.6483 225.093 51.4583C224.874 51.283 224.684 51.0784 224.523 50.83C224.363 50.5962 224.231 50.3478 224.144 50.0702L222.609 50.2894C222.755 50.7424 222.945 51.1661 223.194 51.546C223.442 51.9405 223.734 52.2619 224.085 52.5396C224.436 52.8172 224.845 53.0364 225.312 53.1971C225.78 53.3578 226.321 53.4309 226.92 53.4309C227.548 53.4309 228.103 53.3432 228.6 53.1679C229.097 52.9779 229.521 52.7441 229.871 52.4373C230.207 52.1451 230.47 51.7944 230.66 51.3999C230.85 51.0054 230.938 50.5816 230.938 50.1433C230.938 49.6903 230.85 49.3104 230.675 49.0036C230.485 48.6968 230.251 48.4191 229.973 48.2C229.681 47.9808 229.345 47.8055 228.98 47.6593C228.6 47.5132 228.22 47.3817 227.84 47.2648C227.586 47.1989 227.337 47.1268 227.095 47.0565L227.093 47.0558C226.96 47.0174 226.829 46.9795 226.701 46.9434C226.321 46.8411 225.985 46.7096 225.707 46.5781C225.415 46.4466 225.181 46.2859 225.006 46.0959C224.816 45.906 224.728 45.6722 224.728 45.3946C224.728 45.19 224.786 44.9855 224.889 44.7809C224.991 44.5909 225.152 44.401 225.342 44.2403C225.532 44.0795 225.751 43.9627 226.028 43.8604C226.291 43.7581 226.584 43.7143 226.92 43.7143C227.27 43.7143 227.577 43.7581 227.84 43.8458C228.103 43.9334 228.337 44.0503 228.542 44.211C228.732 44.3718 228.892 44.5471 229.024 44.7663C229.155 44.9855 229.258 45.2192 229.331 45.4676L230.865 45.2485C230.763 44.8539 230.602 44.4741 230.383 44.1088C230.163 43.7581 229.886 43.4513 229.55 43.1882C229.214 42.9252 228.834 42.7207 228.395 42.56C227.957 42.3992 227.46 42.3262 226.92 42.3262C226.35 42.3262 225.838 42.4138 225.385 42.5746C224.933 42.7499 224.538 42.9837 224.217 43.2613C223.881 43.5389 223.632 43.875 223.457 44.2403C223.281 44.6056 223.194 45.0001 223.194 45.3946C223.194 45.8475 223.281 46.242 223.471 46.5489C223.647 46.8703 223.881 47.1479 224.173 47.3671C224.45 47.5863 224.786 47.7762 225.166 47.9223C225.532 48.0685 225.912 48.2 226.306 48.3169C226.686 48.4337 227.066 48.536 227.445 48.6382C227.811 48.7405 228.147 48.8575 228.439 48.989C228.717 49.1205 228.951 49.2812 229.141 49.4566C229.316 49.6465 229.404 49.8657 229.404 50.1433Z" fill="#F5F5FB"/>
<path d="M234.297 53.7987C233.985 53.7987 233.716 53.6867 233.492 53.4627C233.268 53.2388 233.157 52.9705 233.157 52.6579C233.157 52.3406 233.268 52.0723 233.492 51.853C233.721 51.629 233.989 51.517 234.297 51.517C234.605 51.517 234.871 51.629 235.095 51.853C235.324 52.0723 235.438 52.3406 235.438 52.6579C235.438 52.9705 235.326 53.2388 235.102 53.4627C234.878 53.6867 234.61 53.7987 234.297 53.7987ZM240.197 53.4697H238.84L242.185 42.6074H243.62L246.986 53.4697H245.496L244.754 51.0831H240.932L240.197 53.4697ZM241.268 49.9983H244.439L243.13 45.8759L242.822 44.7841L242.549 45.8759L241.268 49.9983ZM248.421 53.4697V52.3849H250.808V43.6993H248.421V42.6074H254.608V43.6993H252.222V52.3849H254.608V53.4697H248.421Z" fill="#F5F5FB"/>
<path d="M69.9189 26.8757C69.9189 28.8347 69.2075 30.4018 67.7847 31.5772C66.3825 32.7319 64.3823 33.3093 61.7841 33.3093C59.454 33.3093 57.3713 32.866 55.5361 31.9793V27.618C56.5877 28.0717 57.6703 28.4944 58.7838 28.8862C59.918 29.2574 61.0418 29.443 62.1553 29.443C63.31 29.443 64.1245 29.2264 64.5988 28.7934C65.0937 28.3398 65.3411 27.7727 65.3411 27.0922C65.3411 26.5355 65.1452 26.0612 64.7535 25.6694C64.3823 25.2776 63.8771 24.9168 63.2379 24.5868C62.5986 24.2363 61.8666 23.8651 61.0418 23.4733C60.5263 23.2259 59.9695 22.9372 59.3715 22.6073C58.7735 22.2567 58.1961 21.834 57.6394 21.3391C57.1033 20.8236 56.6599 20.205 56.3094 19.4833C55.9588 18.7615 55.7835 17.8955 55.7835 16.8851C55.7835 14.9055 56.4537 13.3693 57.794 12.2764C59.1344 11.1629 60.9593 10.6061 63.2688 10.6061C64.4235 10.6061 65.5164 10.7402 66.5474 11.0082C67.5991 11.2763 68.692 11.6578 69.8261 12.1527L68.3105 15.8025C67.3001 15.3901 66.3928 15.0705 65.5886 14.8436C64.7844 14.6168 63.9596 14.5034 63.1141 14.5034C62.2274 14.5034 61.547 14.7096 61.0727 15.122C60.5984 15.5344 60.3613 16.0706 60.3613 16.7304C60.3613 17.514 60.7118 18.1326 61.4129 18.5863C62.114 19.0399 63.1554 19.5967 64.5369 20.2565C65.6711 20.7927 66.6299 21.3494 67.4135 21.9268C68.2177 22.5042 68.8363 23.1846 69.2693 23.9682C69.7024 24.7518 69.9189 25.721 69.9189 26.8757ZM110.256 33H97.5439V10.9154H110.256V14.7509H102.214V19.607H109.7V23.4424H102.214V29.1337H110.256V33ZM144.896 10.9154C147.907 10.9154 150.123 11.4619 151.546 12.5548C152.99 13.6477 153.711 15.3076 153.711 17.5346C153.711 18.545 153.516 19.4317 153.124 20.1947C152.753 20.937 152.247 21.5762 151.608 22.1124C150.99 22.6279 150.319 23.0506 149.598 23.3805L156.093 33H150.897L145.639 24.525H143.133V33H138.463V10.9154H144.896ZM144.556 14.7509H143.133V20.7205H144.649C146.195 20.7205 147.298 20.4627 147.958 19.9472C148.639 19.4317 148.979 18.6688 148.979 17.6583C148.979 16.6067 148.618 15.8644 147.896 15.4313C147.195 14.9777 146.082 14.7509 144.556 14.7509ZM200.463 25.2055C200.463 26.7314 200.123 28.1129 199.443 29.3502C198.783 30.5668 197.772 31.5359 196.411 32.2577C195.071 32.9588 193.37 33.3093 191.308 33.3093C188.38 33.3093 186.153 32.567 184.627 31.0823C183.101 29.577 182.338 27.5974 182.338 25.1436V10.9154H187.008V24.4322C187.008 26.2468 187.38 27.5253 188.122 28.2676C188.864 29.0099 189.967 29.3811 191.431 29.3811C192.957 29.3811 194.061 28.979 194.741 28.1748C195.442 27.3706 195.793 26.1128 195.793 24.4013V10.9154H200.463V25.2055ZM238.824 33L233.504 15.6788H233.38C233.4 16.0912 233.431 16.7098 233.473 17.5346C233.514 18.3594 233.555 19.2461 233.596 20.1947C233.638 21.1226 233.658 21.968 233.658 22.731V33H229.483V10.9154H235.854L241.082 27.8036H241.174L246.711 10.9154H253.083V33H248.721V22.5454C248.721 21.8443 248.732 21.0401 248.752 20.1328C248.794 19.2255 248.825 18.3698 248.845 17.5656C248.886 16.7407 248.917 16.1221 248.938 15.7097H248.814L243.123 33H238.824Z" fill="#09ACC7"/>
<defs>
<linearGradient id="paint0_linear" x1="20.5372" y1="59.5976" x2="20.5372" y2="26.7084" gradientUnits="userSpaceOnUse">
<stop stop-color="#05AAC5"/>
<stop offset="1" stop-color="#71E0EC"/>
</linearGradient>
<linearGradient id="paint1_linear" x1="20.537" y1="63.682" x2="20.537" y2="24.0488" gradientUnits="userSpaceOnUse">
<stop stop-color="#05AAC5"/>
<stop offset="1" stop-color="#71E0EC"/>
</linearGradient>
<linearGradient id="paint2_linear" x1="20.537" y1="67.7708" x2="20.537" y2="21.3172" gradientUnits="userSpaceOnUse">
<stop stop-color="#05AAC5"/>
<stop offset="1" stop-color="#71E0EC"/>
</linearGradient>
<linearGradient id="paint3_linear" x1="20.4859" y1="7.3252" x2="20.4859" y2="44.5394" gradientUnits="userSpaceOnUse">
<stop stop-color="#70E0EC"/>
<stop offset="1" stop-color="#3EC6DA"/>
</linearGradient>
</defs>
</svg>
